<?xml version="1.0" encoding="UTF-8" standalone="no"?>
<svg
   xmlns:dc="http://purl.org/dc/elements/1.1/"
   xmlns:cc="http://creativecommons.org/ns#"
   xmlns:rdf="http://www.w3.org/1999/02/22-rdf-syntax-ns#"
   xmlns:svg="http://www.w3.org/2000/svg"
   xmlns="http://www.w3.org/2000/svg"
   xmlns:sodipodi="http://sodipodi.sourceforge.net/DTD/sodipodi-0.dtd"
   xmlns:inkscape="http://www.inkscape.org/namespaces/inkscape"
   version="1.1"
   id="svg2"
   xml:space="preserve"
   width="226.66667"
   height="109.33333"
   viewBox="0 0 226.66667 109.33333"
   sodipodi:docname="Infosys.eps"><metadata
     id="metadata8"><rdf:RDF><cc:Work
         rdf:about=""><dc:format>image/svg+xml</dc:format><dc:type
           rdf:resource="http://purl.org/dc/dcmitype/StillImage" /></cc:Work></rdf:RDF></metadata><defs
     id="defs6" /><sodipodi:namedview
     pagecolor="#ffffff"
     bordercolor="#666666"
     borderopacity="1"
     objecttolerance="10"
     gridtolerance="10"
     guidetolerance="10"
     inkscape:pageopacity="0"
     inkscape:pageshadow="2"
     inkscape:window-width="640"
     inkscape:window-height="480"
     id="namedview4" /><g
     id="g10"
     inkscape:groupmode="layer"
     inkscape:label="ink_ext_XXXXXX"
     transform="matrix(1.3333333,0,0,-1.3333333,0,109.33333)"><g
       id="g12"
       transform="scale(0.1)"><path
         d="M 1696,2.92188 H 9.99219 V 816.402 H 1696 V 2.92188"
         style="fill:#e9e9e9;fill-opacity:1;fill-rule:evenodd;stroke:none"
         id="path14" /><path
         d="m 495.254,161.461 c 8.902,-1.059 10.516,-6.02 10.516,-19.113 0.003,-18.633 -1.036,-23.934 -10.52,-24.981 l 0.004,-4.004 c 12.918,1.114 15.094,9.621 15.094,25.84 0.004,17.274 -1.688,25.867 -15.098,26.356 z m -10.52,0.23 h 6.086 c 1.621,0 3.051,-0.074 4.43,-0.23 l 0.004,4.098 c -0.492,0 -0.891,0 -1.383,0 h -13.793 v -52.371 h 11.953 c 1.137,0 2.164,0.078 3.219,0.175 l 0.004,4.004 c -1.445,-0.156 -3.066,-0.234 -4.906,-0.234 h -5.614 v 44.558"
         style="fill:#231f20;fill-opacity:1;fill-rule:evenodd;stroke:none"
         id="path16" /><path
         d="m 575.066,138.566 c 9.965,0 8.434,-10.035 8.528,-12.285 0.082,-2.812 0.242,-11.582 0.719,-13.093 h 4.417 c -0.164,2.089 -0.558,4.101 -0.558,6.105 0,18.727 -0.41,19.59 -7.715,21.121 l 0.004,0.164 c 6.992,1.602 8.102,5.938 8.102,12.442 0.003,9.25 -2.579,12.539 -12.606,12.539 h -0.891 v -3.868 h 0.571 c 5.449,0 8.265,-1.433 8.265,-8.582 0,-8.195 -2.82,-10.285 -8.836,-10.527 z m -0.152,0 h 0.152 v 4.016 c -0.464,-0.078 -0.871,-0.078 -1.359,-0.078 h -7.547 v 19.187 h 8.906 v 3.868 h -13.562 v -52.371 h 4.656 v 25.378 h 8.754"
         style="fill:#231f20;fill-opacity:1;fill-rule:evenodd;stroke:none"
         id="path18" /><path
         d="m 640.215,165.559 v -52.371 h 4.66 v 52.371 h -4.66"
         style="fill:#231f20;fill-opacity:1;fill-rule:evenodd;stroke:none"
         id="path20" /><path
         d="M 710.168,118.742 H 710 l -12.453,46.817 h -4.887 l 14.516,-52.371 h 5.871 l 14.465,52.371 h -4.504 l -12.84,-46.817"
         style="fill:#231f20;fill-opacity:1;fill-rule:evenodd;stroke:none"
         id="path22" /><path
         d="m 775.293,165.559 v -52.371 h 24.25 v 3.945 h -19.594 v 21.035 h 18.235 v 3.934 h -18.235 v 19.589 h 19.106 v 3.868 h -23.762"
         style="fill:#231f20;fill-opacity:1;fill-rule:evenodd;stroke:none"
         id="path24" /><path
         d="m 853.832,113.188 v 46.347 l 0.164,0.156 21.356,-46.503 h 6.914 v 52.371 h -4.5 V 119.77 l -0.168,-0.157 -21.258,45.946 h -7.082 v -52.371 h 4.574"
         style="fill:#231f20;fill-opacity:1;fill-rule:evenodd;stroke:none"
         id="path26" /><path
         d="m 1005.47,161.691 h 0.4 c 3.69,0 8.51,-0.156 8.51,-8.906 0,-5.945 -2.18,-10.437 -8.84,-10.437 h -0.07 v -3.938 h 0.64 c 7.94,0 9.31,-6.344 9.31,-11.004 0,-7.14 -3.22,-9.883 -9.95,-10.195 v -4.023 h 1.37 c 8.74,0 13.24,5.136 13.24,14.628 0,6.575 -1.85,11.153 -8.68,12.598 v 0.164 c 6.6,1.77 7.54,6.192 7.54,12.442 0.01,9.25 -4.16,12.539 -12.36,12.539 h -1.11 z m -8.837,-19.343 v 19.343 h 8.837 v 3.868 h -13.509 v -52.371 h 13.509 v 4.023 c -0.4,-0.078 -0.9,-0.078 -1.46,-0.078 h -7.377 v 21.277 h 8.837 v 3.938 h -8.837"
         style="fill:#231f20;fill-opacity:1;fill-rule:evenodd;stroke:none"
         id="path28" /><path
         d="m 1080.72,113.188 h 4.66 v 21.765 l 14.93,30.606 h -4.66 l -12.52,-26.024 -11.97,26.024 h -5.22 l 14.78,-30.606 v -21.765"
         style="fill:#231f20;fill-opacity:1;fill-rule:evenodd;stroke:none"
         id="path30" /><path
         d="m 1218.53,118.742 h -0.17 l -12.45,46.817 h -4.88 l 14.61,-52.371 h 5.79 l 14.45,52.371 h -4.5 l -12.85,-46.817"
         style="fill:#231f20;fill-opacity:1;fill-rule:evenodd;stroke:none"
         id="path32" /><path
         d="m 1295.64,126.996 h 10.2 l 4.17,-13.808 h 4.81 l -16.29,52.371 h -2.89 V 160.5 l 8.9,-29.57 h -8.9 z m -2.58,38.563 -16.54,-52.371 h 4.56 l 4.18,13.808 h 10.38 v 3.934 h -9.01 l 8.83,29.57 h 0.18 v 5.059 h -2.58"
         style="fill:#231f20;fill-opacity:1;fill-rule:evenodd;stroke:none"
         id="path34" /><path
         d="m 1384.39,113.188 v 3.945 h -17.35 v 48.426 h -4.68 v -52.371 h 22.03"
         style="fill:#231f20;fill-opacity:1;fill-rule:evenodd;stroke:none"
         id="path36" /><path
         d="m 1436.74,165.559 h -4.67 v -36.317 c 0,-13.476 7.14,-17.012 15.35,-17.012 8.18,0 15.33,3.536 15.33,17.012 v 36.317 h -4.65 v -32.926 c 0,-6.828 -0.01,-16.543 -10.68,-16.543 -10.68,0 -10.69,9.715 -10.69,16.543 l 0.01,32.926"
         style="fill:#231f20;fill-opacity:1;fill-rule:evenodd;stroke:none"
         id="path38" /><path
         d="m 1514.64,165.559 v -52.371 h 24.24 v 3.945 h -19.59 v 21.035 h 18.23 v 3.934 h -18.23 v 19.589 h 19.03 v 3.868 h -23.68"
         style="fill:#231f20;fill-opacity:1;fill-rule:evenodd;stroke:none"
         id="path40" /><path
         d="m 1615.04,152.297 c 0,7.551 -2.34,14.289 -13.18,14.289 -8.61,0 -14.31,-3.758 -14.22,-12.844 0.07,-5.215 0.47,-8.347 10.67,-14.539 7.47,-4.648 12.21,-6.652 12.21,-13.801 0.01,-6.023 -2.96,-9.312 -9.07,-9.312 -9.31,0 -9.79,6.015 -9.79,11.875 h -4.75 c -0.49,-10.285 4.09,-15.735 14.38,-15.735 9.07,0 13.91,4.571 13.91,13.887 0,10.207 -6.6,11.571 -13.1,16.231 -5.95,4.246 -9.81,4.422 -9.81,12.195 0,6.191 3.54,8.109 9.16,8.109 7.15,-0.004 8.75,-3.929 8.83,-10.355 h 4.76"
         style="fill:#231f20;fill-opacity:1;fill-rule:evenodd;stroke:none"
         id="path42" /><path
         d="m 103.73,245.227 h 0.563 c 9,0 12.363,4.738 12.363,15.257 0.008,12.125 -7.148,12.684 -11.472,12.684 h -1.454 v -3.859 h 0.254 c 4.168,0 8.036,-0.711 8.036,-9.704 0.003,-8.203 -3.145,-10.453 -7.969,-10.453 H 103.73 Z M 90.793,220.793 h 4.664 v 24.434 h 8.273 v 3.925 h -8.273 v 20.157 h 8.273 v 3.859 H 90.793 v -52.375"
         style="fill:#231f20;fill-opacity:1;fill-rule:evenodd;stroke:none"
         id="path44" /><path
         d="m 179.391,270.285 c 11.32,0 11.144,-10.047 11.144,-23.297 0.004,-13.164 0.176,-23.281 -11.152,-23.281 l 0.008,-3.859 c 17.023,0 15.812,17.023 15.812,27.14 0.004,10.192 1.211,27.227 -15.82,27.227 z m 0,-46.582 c -11.328,0 -11.161,10.121 -11.161,23.285 0.004,13.246 -0.167,23.301 11.153,23.301 l 0.008,3.926 c -17.114,0 -15.821,-17.035 -15.821,-27.227 0.004,-10.121 -1.297,-27.14 15.813,-27.14 l 0.008,3.855"
         style="fill:#231f20;fill-opacity:1;fill-rule:evenodd;stroke:none"
         id="path46" /><path
         d="m 256.973,226.906 h -0.172 l -10.52,46.262 h -4.972 l 12.613,-52.375 h 5.851 l 10.762,46.582 h 0.168 l 10.508,-46.582 h 6.117 l 12.918,52.375 h -4.57 L 284.52,227.309 h -0.086 l -10.52,45.859 h -6.277 l -10.664,-46.262"
         style="fill:#231f20;fill-opacity:1;fill-rule:evenodd;stroke:none"
         id="path48" /><path
         d="m 347.625,273.168 v -52.375 h 24.172 v 3.949 h -19.582 v 21.043 h 18.226 v 3.934 h -18.226 v 19.59 h 19.113 v 3.859 h -23.703"
         style="fill:#231f20;fill-opacity:1;fill-rule:evenodd;stroke:none"
         id="path50" /><path
         d="m 433.734,246.176 c 9.95,-0.078 8.422,-10.031 8.512,-12.278 0.074,-2.8 0.32,-11.57 0.711,-13.105 h 4.445 c -0.097,2.098 -0.511,4.113 -0.511,6.113 0.004,18.723 -0.399,19.602 -7.703,21.125 l 0.003,0.168 c 6.989,1.61 8.11,5.938 8.11,12.438 0.004,9.25 -2.559,12.531 -12.606,12.531 h -0.961 v -3.859 h 0.641 c 5.477,0 8.27,-1.434 8.27,-8.59 0.003,-8.196 -2.911,-10.278 -8.918,-10.598 z m -0.082,0 h 0.082 v 3.945 c -0.406,0 -0.886,0 -1.285,0 h -7.558 v 19.188 h 8.843 v 3.859 h -13.511 v -52.375 h 4.668 v 25.383 h 8.761"
         style="fill:#231f20;fill-opacity:1;fill-rule:evenodd;stroke:none"
         id="path52" /><path
         d="m 497.973,273.168 v -52.375 h 24.254 v 3.949 h -19.586 v 21.043 h 18.148 v 3.934 h -18.148 v 19.59 h 19.027 v 3.859 h -23.695"
         style="fill:#231f20;fill-opacity:1;fill-rule:evenodd;stroke:none"
         id="path54" /><path
         d="m 586.25,269.074 c 8.977,-1.035 10.516,-6.023 10.516,-19.187 0.004,-18.555 -1.055,-23.86 -10.516,-24.903 v -4.023 c 13,1.125 15.172,9.629 15.172,25.871 0.004,17.262 -1.699,25.848 -15.172,26.336 z m -10.523,0.235 h 6.089 c 1.688,0 3.141,-0.079 4.434,-0.235 v 4.094 c -0.41,0 -0.812,0 -1.293,0 h -13.894 v -52.375 h 11.96 c 1.211,0 2.247,0.098 3.227,0.168 v 4.023 c -1.379,-0.156 -3.07,-0.242 -4.828,-0.242 h -5.695 v 44.567"
         style="fill:#231f20;fill-opacity:1;fill-rule:evenodd;stroke:none"
         id="path56" /><path
         d="m 714.336,269.309 h 0.398 c 3.704,0 8.426,-0.145 8.426,-8.914 0,-5.938 -2.066,-10.508 -8.758,-10.508 h -0.066 v -3.86 h 0.57 c 8.032,0 9.387,-6.355 9.387,-11.004 0.004,-7.148 -3.199,-9.882 -9.961,-10.281 l 0.004,-3.949 h 1.277 c 8.84,0 13.34,5.156 13.34,14.633 0.004,6.582 -1.844,11.148 -8.758,12.605 v 0.168 c 6.582,1.766 7.637,6.18 7.637,12.438 0,9.25 -4.184,12.531 -12.375,12.531 h -1.121 z m -8.832,-19.422 v 19.422 h 8.832 v 3.859 h -13.492 v -52.375 h 13.492 v 3.949 c -0.477,0 -0.981,0 -1.438,0 h -7.394 v 21.285 h 8.832 v 3.86 h -8.832"
         style="fill:#231f20;fill-opacity:1;fill-rule:evenodd;stroke:none"
         id="path58" /><path
         d="m 788.859,220.793 h 4.668 v 21.777 l 14.934,30.598 h -4.664 l -12.516,-26.008 -11.965,26.008 h -5.23 l 14.773,-30.598 v -21.777"
         style="fill:#231f20;fill-opacity:1;fill-rule:evenodd;stroke:none"
         id="path60" /><path
         d="m 905,273.168 v -52.375 h 4.66 v 52.375 H 905"
         style="fill:#231f20;fill-opacity:1;fill-rule:evenodd;stroke:none"
         id="path62" /><path
         d="m 966.359,220.793 v 46.359 l 0.157,0.149 21.359,-46.508 h 6.984 v 52.375 h -4.644 v -45.781 l -0.094,-0.164 -21.273,45.945 h -7.063 v -52.375 h 4.574"
         style="fill:#231f20;fill-opacity:1;fill-rule:evenodd;stroke:none"
         id="path64" /><path
         d="m 1055.25,220.793 h 4.66 v 48.516 h 12.78 v 3.859 h -30.2 v -3.859 h 12.76 v -48.516"
         style="fill:#231f20;fill-opacity:1;fill-rule:evenodd;stroke:none"
         id="path66" /><path
         d="m 1120.07,273.168 v -52.375 h 24.25 v 3.949 h -19.59 v 21.043 h 18.14 v 3.934 h -18.14 v 19.59 h 19.04 v 3.859 h -23.7"
         style="fill:#231f20;fill-opacity:1;fill-rule:evenodd;stroke:none"
         id="path68" /><path
         d="m 1214.6,220.793 v 3.949 h -17.35 v 48.426 h -4.67 v -52.375 h 22.02"
         style="fill:#231f20;fill-opacity:1;fill-rule:evenodd;stroke:none"
         id="path70" /><path
         d="m 1283.66,220.793 v 3.949 h -17.27 v 48.426 h -4.65 v -52.375 h 21.92"
         style="fill:#231f20;fill-opacity:1;fill-rule:evenodd;stroke:none"
         id="path72" /><path
         d="m 1331.45,273.168 v -52.375 h 24.16 v 3.949 h -19.58 v 21.043 h 18.23 v 3.934 h -18.23 v 19.59 h 19.12 v 3.859 h -23.7"
         style="fill:#231f20;fill-opacity:1;fill-rule:evenodd;stroke:none"
         id="path74" /><path
         d="m 1418.97,219.848 c 12.38,0 13.26,12.207 13.26,15.984 h -4.9 c -0.08,-6.746 -2.32,-12.125 -8.36,-12.125 -11.31,-0.004 -11.16,10.117 -11.16,23.281 0,13.246 -0.15,23.301 11.16,23.301 6.36,-0.004 8.44,-5.383 8.14,-11.262 h 4.81 c 0,2.903 0.64,15.188 -12.95,15.188 -17.01,0 -15.81,-17.035 -15.81,-27.227 0,-10.121 -1.2,-27.14 15.81,-27.14 v 0"
         style="fill:#231f20;fill-opacity:1;fill-rule:evenodd;stroke:none"
         id="path76" /><path
         d="m 1490.15,220.793 h 4.64 v 48.516 h 12.76 v 3.859 h -30.19 v -3.859 h 12.79 v -48.516"
         style="fill:#231f20;fill-opacity:1;fill-rule:evenodd;stroke:none"
         id="path78" /><path
         d="m 1379.15,640.512 c 18.31,0 33.33,14.863 33.33,33.332 0,18.23 -15.02,33.25 -33.33,33.25 v -4.903 c 15.58,0 28.35,-12.773 28.35,-28.347 0,-15.668 -12.78,-28.352 -28.35,-28.352 z m 0,30.758 v 5.628 h 1.44 c 2.99,0 5.37,1.438 5.37,4.571 0.01,3.125 -2.15,4.66 -5.92,4.66 h -0.89 v 6.09 c 6.42,-0.078 13.48,-1.524 13.48,-11.317 0.01,-6.261 -3.84,-7.55 -6.08,-8.672 l 6.5,-15.187 h -7.08 l -5.53,14.227 z m 0,35.824 c -18.22,0 -33.33,-15.02 -33.33,-33.25 0,-18.469 15.11,-33.332 33.33,-33.332 v 4.98 c -15.58,0 -28.34,12.684 -28.34,28.352 0,15.574 12.76,28.347 28.34,28.347 z m 0,-14.875 v -6.09 h -6.18 v -9.231 h 6.18 v -5.628 h -6.18 v -14.227 h -6.42 v 35.176 h 11.8 c 0.24,0 0.56,0.004 0.8,0.004 v -0.004"
         style="fill:#287ac8;fill-opacity:1;fill-rule:evenodd;stroke:none"
         id="path80" /><path
         d="m 311.023,658.891 v 39.699 h 39.415 V 371.078 h -39.415 v 39.266 0.48 248.067"
         style="fill:#287ac8;fill-opacity:1;fill-rule:evenodd;stroke:none"
         id="path82" /><path
         d="m 1068.52,300.48 v 21.993 c 1.11,2.101 2.32,4.492 3.69,7.082 l -3.69,-6.836 3.69,6.836 0.22,0.457 c 8.77,17.207 21.46,44.269 32.78,70.136 l -36.69,88.586 v 90.75 c 0.07,-0.242 0.22,-0.488 0.31,-0.73 l 13.25,-32.524 -13.56,33.325 13.56,-33.325 40.16,-97.73 4.65,-15.762 5.23,15.762 50.75,125.438 c 9.31,34.609 46.42,49.55 87.31,49.453 20.3,0.097 35.32,-2.391 53.32,-8.653 v -37.984 c -22.16,16.129 -38.07,25.457 -63.22,25.457 -22.07,0 -48.66,-9.805 -48.66,-42.324 -0.4,-24.414 14.22,-28.926 57.26,-50.285 35.41,-15.34 68.11,-32.282 68.26,-71.559 0.01,-65.531 -64.57,-76.859 -95.97,-76.938 -28.03,0 -53.73,6.915 -68.02,18.79 l 0.01,43.214 2.32,-1.836 c 25.46,-23.859 48.03,-36.152 77.17,-36.152 28.68,-0.234 54.22,13.817 54.22,40.793 0.01,22.586 -19.99,35.75 -55.74,50.848 -34.11,14.777 -56.54,24.582 -65.69,48.984 -13.89,-33.887 -78.62,-191.543 -93.87,-225.266 z m 0,279.004 v -90.75 l -30.53,73.633 c -0.17,0.254 -0.31,0.723 -0.57,1.289 v 0.067 l 0.57,-1.356 c 0.65,-1.367 -0.01,0.086 -0.57,1.453 v 55.332 c 6.11,-1.367 11.9,-2.722 16.63,-4.023 l 13.11,-32.281 1.36,-3.293 -1.36,3.293 c 0.38,-1.039 0.86,-2.25 1.35,-3.364 z m 0,-257.011 V 300.48 h -11.89 l 8.28,15.411 3.61,6.828 -3.61,-6.828 c 0.96,1.683 2.25,3.937 3.6,6.582 z m -31.1,62.015 V 485.68 c 14.06,-11.332 23.37,-25.95 23.46,-46.914 0,-25.364 -9.72,-42.649 -23.46,-54.278 z m -244.705,-0.5 c 0.637,0 1.215,0 1.844,0 44.746,0.801 80.144,49.727 79.121,109.239 -0.969,58.707 -37.032,105.847 -80.969,106.328 l 0.004,26.105 c 0.488,0 0.973,0 1.375,0 47.449,0 88.34,-31.164 107.305,-76.222 -0.176,2.496 -0.332,5.058 -0.332,7.8 0,47.055 45.539,66.965 92.832,66.895 1.777,0 3.621,0 5.3,0 11.185,0.156 25.625,-2.246 38.225,-4.981 V 563.82 l -0.87,1.926 0.87,-2.023 v -0.067 c -0.63,1.36 -1.68,3.692 -3.21,7.324 -5.14,11.708 -9.96,22.547 -24.49,28.008 -7.79,2.657 -16.072,4.024 -25.689,4.024 -22.097,0 -50.371,-9.797 -50.371,-42.336 -0.476,-24.492 15.906,-28.914 58.953,-50.27 16.547,-7.218 32.457,-14.691 44.807,-24.726 V 384.488 c -21.68,-18.324 -53.24,-22.57 -72.522,-22.648 -24.898,0 -48.027,5.527 -62.871,15.098 l 0.004,42.48 c 24.407,-22.168 46.324,-33.566 74.364,-33.566 28.675,-0.176 54.195,13.808 54.195,40.871 0.01,22.492 -20,35.656 -55.719,50.761 -30.281,13.094 -52.766,22.325 -64.582,41.282 1.449,-8.286 2.254,-16.801 2.254,-25.461 0.008,-73.094 -53.016,-132.356 -118.453,-132.356 -0.395,0 -0.891,0 -1.379,0 z m -80.949,106.348 c 1.047,-58.711 37.097,-105.773 80.945,-106.348 l 0.004,-23.039 c -64.805,0.801 -117.102,59.746 -117.102,132.356 0,44.09 19.285,83.125 48.914,107.129 h -80.144 v -189.61 -0.812 -38.934 h -35.649 v 37.746 c 0.079,0.633 0.071,1.27 0.071,2 l 0.008,189.61 h -31.411 v 23.855 h 31.809 c 4.168,48.195 33.961,75.422 75.316,75.422 26.762,0 41.536,-2.824 49.961,-6.672 l 0.004,-32.691 c -0.07,-2.407 -0.07,-3.938 -0.07,-3.938 -0.41,0.086 -1.289,0.086 -1.289,0.086 -12.852,11.895 -25.625,20.727 -55.344,20.727 -23.601,0 -39.266,-19.192 -33.809,-52.934 h 133.239 c 5.16,0.801 10.277,1.281 15.492,1.371 l 0.004,-26.105 c -0.547,0.086 -1.215,0.086 -1.84,0 -44.734,-0.723 -80.164,-49.637 -79.109,-109.219 v 0"
         style="fill:#287ac8;fill-opacity:1;fill-rule:evenodd;stroke:none"
         id="path84" /><path
         d="m 424.012,621.887 0.402,-28.672 v -1.934 h 0.399 c 0.406,1.199 1.042,2.246 1.609,2.969 14.547,15.578 32.766,30.93 76.133,30.93 41.519,0 68.34,-35.262 69.457,-57.422 v -156.934 -0.812 -38.934 h -35.555 v 46.817 133.64 c 0,27.617 -24.273,47.621 -54.066,47.621 -24.641,-0.004 -56.457,-22.246 -57.5,-44.738 V 410.746 l 0.078,-1.066 v -38.602 h -35.653 l 0.086,39.668 -0.086,178.137 0.086,33.004 h 6.328 19.446 8.836"
         style="fill:#287ac8;fill-opacity:1;fill-rule:evenodd;stroke:none"
         id="path86" /></g></g></svg>
